<?xml version="1.0" standalone="no"?>
<!DOCTYPE svg PUBLIC "-//W3C//DTD SVG 20010904//EN"
 "http://www.w3.org/TR/2001/REC-SVG-20010904/DTD/svg10.dtd">
<svg version="1.0" xmlns="http://www.w3.org/2000/svg"
 width="27.000000pt" height="27.000000pt" viewBox="0 0 27.000000 27.000000"
 preserveAspectRatio="xMidYMid meet">

<g transform="translate(0.000000,27.000000) scale(0.100000,-0.100000)"
fill="#000000" stroke="none">
<path d="M170 241 c0 -6 10 -11 22 -11 19 0 15 -8 -32 -55 -29 -30 -51 -58
-47 -62 4 -4 32 18 62 47 47 47 55 51 55 32 0 -12 5 -22 11 -22 6 0 9 16 7 38
-3 35 -5 37 -40 40 -22 2 -38 -1 -38 -7z"/>
<path d="M26 194 c-13 -34 -6 -142 10 -158 19 -20 144 -22 162 -4 14 14 16
128 2 128 -5 0 -10 -26 -12 -57 l-3 -58 -70 0 -70 0 -3 73 -3 72 56 0 c30 0
55 5 55 10 0 6 -26 10 -59 10 -44 0 -60 -4 -65 -16z"/>
</g>
</svg>
